<svg width="33" height="32" viewBox="0 0 33 32" fill="none" xmlns="http://www.w3.org/2000/svg">
<path d="M23.4067 7C21.1267 7 18.4067 7.86667 18.4067 12V20C18.4067 24.1333 21.1267 25 23.4067 25C25.6867 25 28.4067 24.1333 28.4067 20V12C28.4067 7.86667 25.6867 7 23.4067 7ZM9.59333 7C7.31333 7 4.59333 7.86667 4.59333 12V20C4.59333 24.1333 7.31333 25 9.59333 25C11.8733 25 14.5933 24.1333 14.5933 20V12C14.5933 7.86667 11.8733 7 9.59333 7ZM18.4067 15H14.5933V17H18.4067V15ZM30.5 20.3333C29.9533 20.3333 29.5 19.88 29.5 19.3333V12.6667C29.5 12.12 29.9533 11.6667 30.5 11.6667C31.0467 11.6667 31.5 12.12 31.5 12.6667V19.3333C31.5 19.88 31.0467 20.3333 30.5 20.3333ZM2.5 20.3333C1.95333 20.3333 1.5 19.88 1.5 19.3333V12.6667C1.5 12.12 1.95333 11.6667 2.5 11.6667C3.04667 11.6667 3.5 12.12 3.5 12.6667V19.3333C3.5 19.88 3.04667 20.3333 2.5 20.3333Z" fill="#F97316"/>
</svg>
