<svg width="126" height="32" viewBox="0 0 126 32" fill="none" xmlns="http://www.w3.org/2000/svg">
<path d="M10.76 23V10.04H13.208V15.368H19.004V10.04H21.452V23H19.004V17.654H13.208V23H10.76ZM28.4968 23.27C27.5008 23.27 26.6218 23.057 25.8598 22.631C25.1038 22.199 24.5098 21.608 24.0778 20.858C23.6518 20.102 23.4388 19.238 23.4388 18.266C23.4388 17.204 23.6488 16.28 24.0688 15.494C24.4888 14.708 25.0678 14.099 25.8058 13.667C26.5438 13.229 27.3928 13.01 28.3528 13.01C29.3728 13.01 30.2398 13.25 30.9538 13.73C31.6678 14.21 32.1958 14.885 32.5378 15.755C32.8798 16.625 32.9998 17.648 32.8978 18.824H30.4768V17.924C30.4768 16.934 30.3178 16.223 29.9998 15.791C29.6878 15.353 29.1748 15.134 28.4608 15.134C27.6268 15.134 27.0118 15.389 26.6158 15.899C26.2258 16.403 26.0308 17.15 26.0308 18.14C26.0308 19.046 26.2258 19.748 26.6158 20.246C27.0118 20.738 27.5908 20.984 28.3528 20.984C28.8328 20.984 29.2438 20.879 29.5858 20.669C29.9278 20.459 30.1888 20.156 30.3688 19.76L32.8168 20.462C32.4508 21.35 31.8718 22.04 31.0798 22.532C30.2938 23.024 29.4328 23.27 28.4968 23.27ZM25.2748 18.824V17.006H31.7188V18.824H25.2748ZM37.4541 23.27C36.7581 23.27 36.1671 23.138 35.6811 22.874C35.2011 22.604 34.8351 22.247 34.5831 21.803C34.3371 21.353 34.2141 20.858 34.2141 20.318C34.2141 19.868 34.2831 19.457 34.4211 19.085C34.5591 18.713 34.7811 18.386 35.0871 18.104C35.3991 17.816 35.8161 17.576 36.3381 17.384C36.6981 17.252 37.1271 17.135 37.6251 17.033C38.1231 16.931 38.6871 16.835 39.3171 16.745C39.9471 16.649 40.6401 16.544 41.3961 16.43L40.5141 16.916C40.5141 16.34 40.3761 15.917 40.1001 15.647C39.8241 15.377 39.3621 15.242 38.7141 15.242C38.3541 15.242 37.9791 15.329 37.5891 15.503C37.1991 15.677 36.9261 15.986 36.7701 16.43L34.5561 15.728C34.8021 14.924 35.2641 14.27 35.9421 13.766C36.6201 13.262 37.5441 13.01 38.7141 13.01C39.5721 13.01 40.3341 13.142 41.0001 13.406C41.6661 13.67 42.1701 14.126 42.5121 14.774C42.7041 15.134 42.8181 15.494 42.8541 15.854C42.8901 16.214 42.9081 16.616 42.9081 17.06V23H40.7661V21.002L41.0721 21.416C40.5981 22.07 40.0851 22.544 39.5331 22.838C38.9871 23.126 38.2941 23.27 37.4541 23.27ZM37.9761 21.344C38.4261 21.344 38.8041 21.266 39.1101 21.11C39.4221 20.948 39.6681 20.765 39.8481 20.561C40.0341 20.357 40.1601 20.186 40.2261 20.048C40.3521 19.784 40.4241 19.478 40.4421 19.13C40.4661 18.776 40.4781 18.482 40.4781 18.248L41.1981 18.428C40.4721 18.548 39.8841 18.65 39.4341 18.734C38.9841 18.812 38.6211 18.884 38.3451 18.95C38.0691 19.016 37.8261 19.088 37.6161 19.166C37.3761 19.262 37.1811 19.367 37.0311 19.481C36.8871 19.589 36.7791 19.709 36.7071 19.841C36.6411 19.973 36.6081 20.12 36.6081 20.282C36.6081 20.504 36.6621 20.696 36.7701 20.858C36.8841 21.014 37.0431 21.134 37.2471 21.218C37.4511 21.302 37.6941 21.344 37.9761 21.344ZM45.4283 23V9.77H47.8763V23H45.4283ZM55.0925 23.27C54.0965 23.27 53.2175 23.057 52.4555 22.631C51.6995 22.199 51.1055 21.608 50.6735 20.858C50.2475 20.102 50.0345 19.238 50.0345 18.266C50.0345 17.204 50.2445 16.28 50.6645 15.494C51.0845 14.708 51.6635 14.099 52.4015 13.667C53.1395 13.229 53.9885 13.01 54.9485 13.01C55.9685 13.01 56.8355 13.25 57.5495 13.73C58.2635 14.21 58.7915 14.885 59.1335 15.755C59.4755 16.625 59.5955 17.648 59.4935 18.824H57.0725V17.924C57.0725 16.934 56.9135 16.223 56.5955 15.791C56.2835 15.353 55.7705 15.134 55.0565 15.134C54.2225 15.134 53.6075 15.389 53.2115 15.899C52.8215 16.403 52.6265 17.15 52.6265 18.14C52.6265 19.046 52.8215 19.748 53.2115 20.246C53.6075 20.738 54.1865 20.984 54.9485 20.984C55.4285 20.984 55.8395 20.879 56.1815 20.669C56.5235 20.459 56.7845 20.156 56.9645 19.76L59.4125 20.462C59.0465 21.35 58.4675 22.04 57.6755 22.532C56.8895 23.024 56.0285 23.27 55.0925 23.27ZM51.8705 18.824V17.006H58.3145V18.824H51.8705ZM61.5256 23V13.28H63.6856V15.656L63.4516 15.35C63.5776 15.014 63.7456 14.708 63.9556 14.432C64.1656 14.156 64.4236 13.928 64.7296 13.748C64.9636 13.604 65.2186 13.493 65.4946 13.415C65.7706 13.331 66.0556 13.28 66.3496 13.262C66.6436 13.238 66.9376 13.244 67.2316 13.28V15.566C66.9616 15.482 66.6466 15.455 66.2866 15.485C65.9326 15.509 65.6116 15.59 65.3236 15.728C65.0356 15.86 64.7926 16.037 64.5946 16.259C64.3966 16.475 64.2466 16.733 64.1446 17.033C64.0426 17.327 63.9916 17.66 63.9916 18.032V23H61.5256Z" fill="#F97316"/>
<path d="M107.407 7C105.127 7 102.407 7.86667 102.407 12V20C102.407 24.1333 105.127 25 107.407 25C109.687 25 112.407 24.1333 112.407 20V12C112.407 7.86667 109.687 7 107.407 7ZM93.5933 7C91.3133 7 88.5933 7.86667 88.5933 12V20C88.5933 24.1333 91.3133 25 93.5933 25C95.8733 25 98.5933 24.1333 98.5933 20V12C98.5933 7.86667 95.8733 7 93.5933 7ZM102.407 15H98.5933V17H102.407V15ZM114.5 20.3333C113.953 20.3333 113.5 19.88 113.5 19.3333V12.6667C113.5 12.12 113.953 11.6667 114.5 11.6667C115.047 11.6667 115.5 12.12 115.5 12.6667V19.3333C115.5 19.88 115.047 20.3333 114.5 20.3333ZM86.5 20.3333C85.9533 20.3333 85.5 19.88 85.5 19.3333V12.6667C85.5 12.12 85.9533 11.6667 86.5 11.6667C87.0467 11.6667 87.5 12.12 87.5 12.6667V19.3333C87.5 19.88 87.0467 20.3333 86.5 20.3333Z" fill="#F97316"/>
</svg>
