<svg width="24" height="24" viewBox="0 0 24 24" fill="none" xmlns="http://www.w3.org/2000/svg">
<path d="M19.34 14.4899L18.34 12.8299C18.13 12.4599 17.94 11.7599 17.94 11.3499V8.81991C17.9388 7.70395 17.6217 6.61113 17.0253 5.66789C16.4289 4.72465 15.5776 3.96953 14.57 3.48992C14.3128 3.03326 13.9377 2.65406 13.4838 2.39195C13.03 2.12984 12.5141 1.99445 11.99 1.99992C10.9 1.99992 9.92 2.58992 9.4 3.51992C7.45 4.48992 6.1 6.49992 6.1 8.81991V11.3499C6.1 11.7599 5.91 12.4599 5.7 12.8199L4.69 14.4899C4.29 15.1599 4.2 15.8999 4.45 16.5799C4.69 17.2499 5.26 17.7699 6 18.0199C7.94 18.6799 9.98 18.9999 12.02 18.9999C14.06 18.9999 16.1 18.6799 18.04 18.0299C18.74 17.7999 19.28 17.2699 19.54 16.5799C19.8 15.8899 19.73 15.1299 19.34 14.4899ZM14.83 20.0099C14.6197 20.5921 14.2353 21.0954 13.729 21.4514C13.2226 21.8074 12.619 21.9989 12 21.9999C11.21 21.9999 10.43 21.6799 9.88 21.1099C9.56 20.8099 9.32 20.4099 9.18 19.9999C9.31 20.0199 9.44 20.0299 9.58 20.0499C9.81 20.0799 10.05 20.1099 10.29 20.1299C10.86 20.1799 11.44 20.2099 12.02 20.2099C12.59 20.2099 13.16 20.1799 13.72 20.1299C13.93 20.1099 14.14 20.0999 14.34 20.0699L14.83 20.0099Z" fill="#64748B"/>
</svg>
