<svg width="24" height="24" viewBox="0 0 24 24" fill="none" xmlns="http://www.w3.org/2000/svg">
<path d="M20.1 9.22091C18.29 9.22091 17.55 7.94091 18.45 6.37091C18.97 5.46091 18.66 4.30091 17.75 3.78091L16.02 2.79091C15.23 2.32091 14.21 2.60091 13.74 3.39091L13.63 3.58091C12.73 5.15091 11.25 5.15091 10.34 3.58091L10.23 3.39091C10.1222 3.20189 9.97789 3.0362 9.80545 2.90348C9.63302 2.77075 9.43591 2.67365 9.2256 2.61781C9.01529 2.56198 8.79597 2.54853 8.58041 2.57825C8.36485 2.60796 8.15736 2.68025 7.97 2.79091L6.24 3.78091C5.33 4.30091 5.02 5.47091 5.54 6.38091C6.45 7.94091 5.71 9.22091 3.9 9.22091C2.86 9.22091 2 10.0709 2 11.1209V12.8809C2 13.9209 2.85 14.7809 3.9 14.7809C5.71 14.7809 6.45 16.0609 5.54 17.6309C5.02 18.5409 5.33 19.7009 6.24 20.2209L7.97 21.2109C8.76 21.6809 9.78 21.4009 10.25 20.6109L10.36 20.4209C11.26 18.8509 12.74 18.8509 13.65 20.4209L13.76 20.6109C14.23 21.4009 15.25 21.6809 16.04 21.2109L17.77 20.2209C18.68 19.7009 18.99 18.5309 18.47 17.6309C17.56 16.0609 18.3 14.7809 20.11 14.7809C21.15 14.7809 22.01 13.9309 22.01 12.8809V11.1209C22.0048 10.6169 21.8015 10.1352 21.4442 9.77968C21.0868 9.42421 20.604 9.22351 20.1 9.22091ZM12 15.2509C10.21 15.2509 8.75 13.7909 8.75 12.0009C8.75 10.2109 10.21 8.75091 12 8.75091C13.79 8.75091 15.25 10.2109 15.25 12.0009C15.25 13.7909 13.79 15.2509 12 15.2509Z" fill="#64748B"/>
</svg>
