<svg width="24" height="24" viewBox="0 0 24 24" fill="none" xmlns="http://www.w3.org/2000/svg">
<path d="M21.93 6.76002L18.56 20.29C18.4431 20.7793 18.164 21.2146 17.7682 21.5251C17.3723 21.8356 16.8831 22.003 16.38 22H3.24002C1.73002 22 0.650022 20.52 1.10002 19.07L5.31002 5.55002C5.4507 5.09152 5.7342 4.68997 6.11917 4.40394C6.50414 4.11791 6.97043 3.96237 7.45002 3.96002H19.75C20.7 3.96002 21.49 4.54002 21.82 5.34002C22.01 5.77002 22.05 6.26002 21.93 6.76002Z" stroke="#475569" stroke-width="1.5" stroke-miterlimit="10"/>
<path d="M16 22H20.78C22.07 22 23.08 20.91 22.99 19.62L22 5.99999M9.67995 6.37999L10.72 2.05999M16.38 6.38999L17.32 2.04999M7.69995 12H15.7M6.69995 16H14.7" stroke="#475569" stroke-width="1.5" stroke-miterlimit="10" stroke-linecap="round" stroke-linejoin="round"/>
</svg>
